<svg height="512pt" viewBox="0 0 512 512" width="512pt" xmlns="http://www.w3.org/2000/svg"><path d="m256 0c-141.386719 0-256 114.613281-256 256s114.613281 256 256 256 256-114.613281 256-256-114.613281-256-256-256zm0 300.058594c-24.332031 0-44.058594-19.726563-44.058594-44.058594s19.726563-44.058594 44.058594-44.058594 44.058594 19.726563 44.058594 44.058594-19.726563 44.058594-44.058594 44.058594zm0 0" fill="#3a484a"/><path d="m82.414062 256c0-127.355469 93.003907-232.972656 214.792969-252.683594-13.417969-2.171875-27.175781-3.316406-41.207031-3.316406-141.386719 0-256 114.613281-256 256s114.613281 256 256 256c14.03125 0 27.789062-1.144531 41.207031-3.316406-121.789062-19.710938-214.792969-125.328125-214.792969-252.683594zm0 0" fill="#273435"/><path d="m256 127.046875c-71.21875 0-128.953125 57.734375-128.953125 128.953125s57.734375 128.953125 128.953125 128.953125 128.953125-57.734375 128.953125-128.953125-57.734375-128.953125-128.953125-128.953125zm0 173.011719c-24.332031 0-44.058594-19.726563-44.058594-44.058594s19.726563-44.058594 44.058594-44.058594 44.058594 19.726563 44.058594 44.058594-19.726563 44.058594-44.058594 44.058594zm0 0" fill="#7cb777"/><path d="m188.859375 256c0-60.5625 41.753906-111.367188 98.046875-125.214844-9.902344-2.4375-20.253906-3.738281-30.90625-3.738281-71.21875 0-128.953125 57.734375-128.953125 128.953125s57.734375 128.953125 128.953125 128.953125c10.652344 0 21.003906-1.300781 30.90625-3.738281-56.292969-13.847656-98.046875-64.652344-98.046875-125.214844zm0 0" fill="#34925d"/><path d="m256 455.683594c-110.105469 0-199.683594-89.578125-199.683594-199.683594s89.578125-199.683594 199.683594-199.683594c50.726562 0 99.082031 19.039063 136.15625 53.617188 36.890625 34.402344 59.253906 80.953125 62.976562 131.085937.304688 4.132813-2.796874 7.726563-6.925781 8.035157-4.136719.308593-7.726562-2.792969-8.035156-6.925782-7.105469-95.78125-88.003906-170.8125-184.171875-170.8125-101.835938 0-184.683594 82.847656-184.683594 184.683594s82.847656 184.683594 184.683594 184.683594c96.167969 0 177.066406-75.03125 184.171875-170.8125.308594-4.132813 3.898437-7.230469 8.035156-6.925782 4.128907.308594 7.230469 3.902344 6.925781 8.035157-3.722656 50.132812-26.085937 96.683593-62.976562 131.085937-37.074219 34.578125-85.429688 53.617188-136.15625 53.617188zm0 0" fill="#273435"/></svg>